<svg xmlns="http://www.w3.org/2000/svg" width="142.081" height="64.004" viewBox="0 0 142.081 64.004">  <g id="logo_obt" transform="translate(-645.15 -474.331)">    <path d="M665.961,528.021c5.7,0,5.862-6.345,5.917-10.379-.054-3.5-.431-10.38-5.917-10.38-5.324,0-5.753,6.884-5.753,10.38,0,4.034.591,10.379,5.753,10.379m0,9.036c-13.122,0-20.811-6.614-20.811-19.414,0-12.584,7.689-19.415,20.811-19.415s20.978,6.831,20.978,19.415c0,12.8-7.851,19.414-20.978,19.414" transform="translate(0 1.278)"/>    <path d="M701.891,513.2h3.6c2.527,0,5.27-.752,5.27-3.6,0-2.8-2.367-3.657-4.948-3.657h-3.928Zm0,15.434h3.761c2.634,0,5.485-.968,5.485-3.871,0-3.227-2.69-3.819-5.378-3.819h-3.872ZM688.338,498.84h23.61c6.507,0,12.907,2.1,12.907,9.25,0,5.162-2.743,7.907-7.744,9.194v.108c5.217.7,8.441,4.787,8.441,8.551,0,9.465-7.637,10.434-15.435,10.434H688.338Z" transform="translate(2.31 1.31)"/>    <path d="M724.987,498.84v11.078h10.542v26.461h14.413V509.918h11.88L750.74,498.84Z" transform="translate(4.269 1.31)"/>    <path d="M781.916,511.712V474.331H744.535Z" transform="translate(5.315)" fill="#af191e"/>  </g></svg>